<?xml version="1.0" standalone="no"?>
<!DOCTYPE svg PUBLIC "-//W3C//DTD SVG 1.1//EN" "http://www.w3.org/Graphics/SVG/1.1/DTD/svg11.dtd" >
<svg xmlns="http://www.w3.org/2000/svg" xmlns:xlink="http://www.w3.org/1999/xlink" version="1.1">
<metadata></metadata>
<defs>
<font id="pixel_bugregular" horiz-adv-x="1046" >
<font-face units-per-em="2048" ascent="1536" descent="-512" />
<missing-glyph horiz-adv-x="1024" />
<glyph horiz-adv-x="0" />
<glyph horiz-adv-x="682" />
<glyph unicode=" "  horiz-adv-x="1024" />
<glyph unicode="&#x09;" horiz-adv-x="1024" />
<glyph unicode="&#xa0;" horiz-adv-x="1024" />
<glyph unicode="!" horiz-adv-x="479" d="M43 0v68h80v161h233v-53h80v-135h-80v-41h-233h-80zM96 487v705h246v-313v-392v-135h-190v135h-56zM137 1192v242h232v-242h-232z" />
<glyph unicode="&#x22;" horiz-adv-x="741" d="M43 1063v108h59v19v98h88v-98h78h60v-49h-60v-117h-166v39h-59zM190 1288v68h68v-68h-68zM258 1366v68h80v-68h-80zM403 1063v108h60v19v98h88v-98h88h49v-49h-49v-117h-176v39h-60zM551 1288v68h78v-68h-78zM629 1366v68h69v-68h-69z" />
<glyph unicode="#" horiz-adv-x="1540" d="M43 203v321h203v385h-203v322h203v203h321v-203h406v203h321v-283h203v-344h-203v-180h203v-324h-203v-303h-241v303h-383v-100h-103v-203h-221v203h-303zM567 627h406v180h-82v102h-324v-282z" />
<glyph unicode="$" d="M43 283v204h244v-204h-244zM43 840v241h82v230h324v123h149v-123h176v-215h230v-82h-230v67h-176v-241h176v-109h230v-448h-230v327h-176v-327h176v-189h-176v-94h-149v94h-162v189h162v327h-162v230h-244zM287 840h162v241h-162v-241z" />
<glyph unicode="%" horiz-adv-x="1089" d="M0 1315v78h90v182h258v-62h90v-167h-90v-31h-258h-90zM14 0v256h197v258h213v545h211v256h199v260h256v-260h-197v-256h-213v-545h-195v-258h-196v-256h-275zM651 0v76h74v180h274v-59h76v-166h-76v-31h-274h-74z" />
<glyph unicode="&#x26;" horiz-adv-x="1449" d="M43 127v616h127v508h98v183h590v-183h84v-479h-84v-180h-491h-84v-465h-240zM297 0v254h422v240h223v98h14v84h142v-127v-113h-142v-182h-184v-254h-475zM367 899h405v352h-405v-352zM1098 324v112h112v-112h-112zM1098 690v125h139v-125h-139zM1210 197v127h125v-127 h-125zM1237 815v182h170v-182h-170z" />
<glyph unicode="'" horiz-adv-x="370" d="M43 1063v108h49v21v96h98v-96h78h49v-51h-49v-117h-176v39h-49zM190 1288v70h68v-70h-68zM258 1358v76h70v-76h-70z" />
<glyph unicode="(" horiz-adv-x="788" d="M43 473v485h109v230h120v244h68h176h229v-148h-229v-96h-123v-230h-121v-485h121v-229h123v-82h229v-162h-229h-176h-68v244h-120v229h-109z" />
<glyph unicode=")" horiz-adv-x="802" d="M43 0v162h244v82h121v229h108v485h-108v230h-121v96h-244v148h244h174h55v-244h121v-230h123v-485h-123v-229h-121v-244h-55h-174h-244z" />
<glyph unicode="*" horiz-adv-x="589" d="M43 1085v127h121v64h63v-64h-63v-127h-121zM43 1399v127h121v-64h63v-63h-63h-121zM233 1051v524h123v-524h-123zM233 1276v123h123v-123h-123zM356 1212v64h64v-64h127v-127h-127v127h-64zM356 1399v63h64v64h127v-127h-127h-64z" />
<glyph unicode="+" horiz-adv-x="1110" d="M43 403v232h389v389h232v-389h143v-72h260v-160h-403v-403h-232v332h-72v71h-317z" />
<glyph unicode="," horiz-adv-x="557" d="M43 -123h111v-110h-111v110zM55 143v78h99v189h266v-64h94v-156h-94v-47v-143h-144v143h-122h-99zM154 0h122v-123h-122v123z" />
<glyph unicode="-" horiz-adv-x="993" d="M43 342v274h600v-86h307v-188h-530h-377z" />
<glyph unicode="." horiz-adv-x="786" d="M43 0v121h143v289h410v-97h147v-241h-147v-72h-410h-143z" />
<glyph unicode="/" horiz-adv-x="1064" d="M43 0v236h180v233h191v496h194v233h178v236h236v-236h-180v-233h-193v-496h-180v-233h-178v-236h-248z" />
<glyph unicode="0" d="M43 229v961h94v244h623v-244h-473v-961h473v-229h-623v229h-94zM760 229v961h244v-961h-244z" />
<glyph unicode="1" horiz-adv-x="811" d="M43 0v231h231v725h-231v246h137v232h94h246v-232v-971h248v-231h-248h-246h-231zM43 0v231h231v725h-231v246h137v232h94h246v-232v-971h248v-231h-248h-246h-231z" />
<glyph unicode="2" horiz-adv-x="1054" d="M43 0v231v246h340v-246h629v-231h-969zM43 954v398h246v82h491v-234h232v-246h-138v-245h-245v-232h-340v232h246v245h149v246h-395v-246h-246z" />
<glyph unicode="3" d="M43 0v244v53v55h244v-55h229v-53h244v338h-473v297h473v323h-244v-53h-229v-68h-244v68v53v232h879v-232h82v-1202h-82h-162h-717z" />
<glyph unicode="4" horiz-adv-x="1114" d="M43 244v229h731v731h-188v-243h-111v-242h-188v-232h-244v232h188v242h56v243h243v230h394v-230h80v-731h67v-229h-67v-244h-230v244h-731z" />
<glyph unicode="5" d="M43 244v243h244v-243h-244zM43 961v243v230h244h473v-82h244v-148h-244h-148h-325v-243h-244zM287 0v244h473v-244h-473zM287 717v244h473h244v-244v-473h-244v473h-473z" />
<glyph unicode="6" d="M43 244v960h229v-393h502h230v-229v-338h-230v338h-502v-338h502v-244h-637v244h-94zM137 1204v230h867v-230v-243h-230v243h-637z" />
<glyph unicode="7" horiz-adv-x="1032" d="M43 958v244h82v232h635h229v-232v-485h-229v-717h-244v717h244v485h-486v-244h-231z" />
<glyph unicode="8" horiz-adv-x="1032" d="M43 0v244v471h82v151v473v39h215v56h350v-56h219v-174v-338v-151h80v-471v-244h-946zM272 244h473v323h-473v-323zM272 866h473v338h-473v-338z" />
<glyph unicode="9" horiz-adv-x="1060" d="M43 229v244h256v-244h475v-229h-622v229h-109zM43 649v68v229v244h109v244h622v-244h-475v-244h475v244h244v-244v-297v-420h-244v420h-731z" />
<glyph unicode=":" horiz-adv-x="737" d="M43 0v96h96v232h346v-78h97v-193h-97v-57h-346h-96zM43 520v94h96v234h346v-80h97v-211h-97v-37h-346h-96z" />
<glyph unicode=";" horiz-adv-x="567" d="M43 -49v112h113v-112h-113zM59 336v80h80v190h289v-63h96v-158h-96v-49v-143h-143v143h-146h-80zM59 752v79h97v193h272v-63h96v-162h-96v-47h-272h-97zM156 63v130h129v-130h-129z" />
<glyph unicode="=" horiz-adv-x="921" d="M43 424v188h623v-59h213v-129h-365h-471zM43 836v188h623v-59h213v-129h-365h-471z" />
<glyph unicode="?" d="M43 975v229h229v-229h-229zM272 1204v230h488v-230h-488zM449 0v68h67v176h244v-56h67v-147h-67v-41h-244h-67zM516 365v122v244h244v135v109v229h244v-229v-109v-135h-177v-244h-67v-122h-244z" />
<glyph unicode="@" horiz-adv-x="1519" d="M43 160v1089h182v-1089h-182zM225 -2v162h1069v-162h-1069zM225 1249v183h1069v-183h-1069zM426 522v142v81h182h365v201h-365h-80h-102v62h102v61h605v-102h41v-445h120v-141h-686v61h-121v80h-61zM608 604h80v-82h285v142h-365v-60zM1294 522v727h183v-727h-183z" />
<glyph unicode="A" d="M43 0v1217h80v215h637v-95h244v-1337h-244v567h-246v-80h-242v-487h-229zM272 879h488v270h-488v-270z" />
<glyph unicode="B" d="M43 -2v244v962h82v80v150h543v-150h270v-80v-55v-434h68v-473h-68v-244h-637h-258zM285 244h487v325h-487v-325zM285 879h487v272h-106h-381v-272z" />
<glyph unicode="C" d="M43 244v958h82v230h633v-230h243v-244h-243v189h-486v-903h-229zM272 0v244h244v80h242v149h243v-190h-243v-39v-29v-215h-486z" />
<glyph unicode="D" d="M43 0v244v958h80v232h637v-177h244v-919v-94h-244v-244h-461h-256zM287 244h243v82h242l-12 823h-473v-905z" />
<glyph unicode="E" d="M43 0v1204h80v230h881v-230v-53v-68h-244v68h-230v53h-243v-323h473v-314h-473v-338h243v68h230v53h244v-53v-68v-229h-717h-164h-80z" />
<glyph unicode="F" horiz-adv-x="1042" d="M43 0v1202h82v232h876v-232v-53v-68h-241v68h-244v53h-244v-323h488v-310h-488v-569h-229z" />
<glyph unicode="G" d="M43 229v975h82v230h649v-230h230v-55v-188h-230v188h-94h-408v-920h-229zM272 0v229h244v121h258v137h-258v230h258h230v-230v-190h-230v-68v-41v-188h-502z" />
<glyph unicode="H" horiz-adv-x="1034" d="M43 0v1204h68v232h161v-232v-338h488v570h231v-1436h-231v569h-244v-82h-244v-487h-161h-68z" />
<glyph unicode="I" horiz-adv-x="817" d="M43 0v229h244v975h-244v150h244v82h473v-82v-150h-230v-975h244v-229h-244h-243h-244z" />
<glyph unicode="J" horiz-adv-x="1036" d="M43 242h227v241h-227v-241zM43 1139v227h227v68h723v-295h-200h-39v-897h-80v-242h-404v283h242v856h-242h-227z" />
<glyph unicode="K" horiz-adv-x="1032" d="M43 0v1202h68v232h161v-232v-244h109h135v244h232v41v191h51h190v-191h-190v-41v-53v-231h-92h-191v-148h191v-53v-230h186v-243h96v-244h-149v244h-189v243h-135h-27h-26v230h-68h-123v-717h-161h-68z" />
<glyph unicode="L" horiz-adv-x="1032" d="M43 0v1202h68v232h161v-232v-973h242v56h244v67h231v-67v-56v-229h-878h-68z" />
<glyph unicode="M" horiz-adv-x="1763" d="M43 0v1202h82v232h39h123h94h149v-232h-149v-485h-94v-717h-41h-121h-82zM530 961v241h244v-241h-244zM774 717v244h230v-244h-230zM1004 961v241h241v-241h-241zM1245 1202v232h408v-232h67v-1202h-161h-68h-82v473h82v729h-246z" />
<glyph unicode="N" d="M43 0v1204h82v230h162v-230v-147h241v-246h-241v-811h-162h-82zM528 594v217h232v623h244v-1434h-244v594h-232z" />
<glyph unicode="O" horiz-adv-x="1032" d="M43 244v958h68v232h176h473v-232h229v-878v-80h-229v-244h-244h-229v244h229v80h244v825h-473v-905h-176h-68z" />
<glyph unicode="P" horiz-adv-x="1032" d="M43 0v1202h68v164v68h161h488v-68h229v-164v-485h-229v-135h-244v-95h-244v-487h-161h-68zM272 797h244h244v352h-488v-352z" />
<glyph unicode="Q" d="M43 244v960h80v230h164h475v-230h242v-717v-243h-95v-244h-147h-246h-229v244h229v82v161h246v664h-475v-907h-164h-80zM909 0h95v-246h-95v246z" />
<glyph unicode="R" horiz-adv-x="1032" d="M43 0v1204h68v230h82h94h473v-68h229v-635h-229v-164h-244v-80h-229v-487h-176h-68zM287 799h229h244v405h-473v-405zM516 244v243h244v-243h-244zM760 0v244h229v-244h-229z" />
<glyph unicode="S" d="M43 244v243h244v-243h-244zM43 961v243h82v230h635v-230h-473v-243h-244zM287 0v244h473v-244h-473zM287 729v232h473v-232h-473zM760 244v485h244v-485h-244zM760 1122v82h244v-82h-244z" />
<glyph unicode="T" horiz-adv-x="1030" d="M41 1204v148h244v82h702v-230h-231h-135v-1204h-230v1204h-106h-244z" />
<glyph unicode="U" horiz-adv-x="1060" d="M43 244v960h82v230h162v-230v-676h487v906h244v-906v-528h-244h-487v244h-162h-82z" />
<glyph unicode="V" d="M43 487v717h68v230h176v-230v-717h67v-243h-243v243h-68zM354 0v244h326v-244h-326zM680 244v311h80v879h244v-879v-311h-244h-80z" />
<glyph unicode="W" horiz-adv-x="1519" d="M43 961v243h68v230h161v-230v-243h150v-474h41v230h149v244h297v-244h-202v-230h-136v-487h-231v487h-176v474h-53h-68zM815 487v230h244v-230h39v474h149v473h230v-473h-121v-474h-176v-487h-230v487h-135z" />
<glyph unicode="X" horiz-adv-x="1032" d="M43 0v244h121v243h188v230h-174v244h-67h-68v243h68v230h161v-230v-243h150v-244h188v244h150v473h229v-473h-135v-244h-174v-230h174v-243h135v-244h-229v244h-150v243h-202v-243h-136v-244h-229z" />
<glyph unicode="Y" d="M43 961v243h68v230h176v-230v-243h149v-244h176v244h160v473h232v-473h-123v-244h-242v-717h-229v717h-244v244h-55h-68z" />
<glyph unicode="Z" horiz-adv-x="1054" d="M43 0v231v248h246v232h233v243h150v246h-383h-246v152h246v82h708v-234v-246h-135v-243h-231v-232h-246v-248h627v-231h-969z" />
<glyph unicode="[" horiz-adv-x="614" d="M43 244v946h229v-946h56v-82h243v-162h-243h-164h-66v244h-55zM98 1190v244h66h164h243v-150h-243v-94h-230z" />
<glyph unicode="\" horiz-adv-x="1064" d="M43 1198v236h248v-236h178v-231h195v-498h178v-233h180v-236h-236v236h-178v233h-194v498h-191v231h-180z" />
<glyph unicode="]" horiz-adv-x="626" d="M43 0v147h244v97h53v946h244v-961h-54v-229h-69h-174h-244zM43 1284v150h244h174h69v-244h-243v94h-244z" />
<glyph unicode="^" horiz-adv-x="733" d="M43 1024v133h117v-133h-117zM160 1157v115h131v-115h-131zM291 1272v166h149v-166h-149zM440 1157v115h117v-115h-117zM557 1024v133h133v-133h-133z" />
<glyph unicode="_" horiz-adv-x="1400" d="M43 0v297h981v-74h334v-223h-555h-760z" />
<glyph unicode="`" horiz-adv-x="479" d="M43 1270v164h147v-164h-147zM190 1155v115h115v-115h-115zM305 1024v131h131v-131h-131z" />
<glyph unicode="a" horiz-adv-x="1222" d="M43 240v209v112h289h559v287h-543h-129h-176v113h176v63h897v-127h64v-834h-64v-63h-784v113h-176v127h-113zM332 336h127v-96h432v209h-559v-113z" />
<glyph unicode="b" horiz-adv-x="1038" d="M43 53v1141h68v242h227v-242h-53v-336h575v-106h135v-551h-82v-121h-145v-80h-657v53h-68zM285 281h121v-80h362v67v256h-94v92h-389v-335z" />
<glyph unicode="c" horiz-adv-x="1204" d="M43 63v836h47v125h899v-63h172v-62v-63v-33h-172v33h-127h-536v-506h127v-94h204h95v94h409v-189h-94v-63h-172v-78h-805v63h-47z" />
<glyph unicode="d" horiz-adv-x="1060" d="M43 190v555h147v109h584v340h-53v242h231v-242h66v-1141h-66v-53h-651v68h-164v122h-94zM301 190h352v82h121v351h-393v-107h-80v-258v-68z" />
<glyph unicode="e" horiz-adv-x="1206" d="M43 47v850h47v127h897v-63h176v-64v-96v-223v-82h-270h-434h-144v-177h144v-96h209h80h145h190h80v-110h-80v-50h-190v-63h-803v47h-47zM315 625h144v-47h434v223h-145v49h-433v-225z" />
<glyph unicode="f" horiz-adv-x="1032" d="M43 678v133h53v55h193v340h53v230h608v-95h39v-135h-39h-190h-189v-192h-53v-148h189h53h41v-149h-41v-39h-242v-678h-229v678h-152h-41h-53z" />
<glyph unicode="g" horiz-adv-x="1243" d="M43 -281h82h145h66v-79h588v358h-799v65h-68v863h68v98h911v-33h164v-49v-131v-211v-82v-274v-246v-391h-47v-180h-883v47h-145v65h-82v180zM336 340h147v-96h441v274h-441h-147v-178zM336 649h147v-49h441v211h-148v51h-440v-213z" />
<glyph unicode="h" horiz-adv-x="1038" d="M43 53v619v174v348h53v242h228v-242h-39v-348h551v-68h159v-778h-241v604h-80v68h-389v-445v-174v-53h-189v53h-53z" />
<glyph unicode="i" horiz-adv-x="378" d="M43 43v719h43v262h250v-262h-43v-367v-352v-43h-207v43h-43zM43 1069v264h250v-264h-250z" />
<glyph unicode="j" horiz-adv-x="1183" d="M43 -301h45h150h61v-78h545v1131h28v270h269v-270h-45v-1160h-62v-165h-796v45h-150v61h-45v166zM813 1071v270h266v-270h-266z" />
<glyph unicode="k" horiz-adv-x="903" d="M43 0v414v192v418h35v193h207v-193h-35v-418h207v-192h-207v-414h-207zM457 207v207h207v-207h-207zM457 606v219h207v-219h-207zM664 0v207h196v-207h-196zM664 825v199h196v-199h-196z" />
<glyph unicode="l" horiz-adv-x="331" d="M43 0v1202h41v234h231v-234h-26v-1202h-246z" />
<glyph unicode="m" horiz-adv-x="1540" d="M43 49v926h49h101v49h1255v-150h49v-874h-280v692h-134v84h-165v-495h-281v495h-297v-727v-49h-248v49h-49z" />
<glyph unicode="n" horiz-adv-x="1241" d="M43 0v973h66v51v131h231v-131h692v-51h166v-164v-98v-711h-262v711h-150v98h-446v-809h-297z" />
<glyph unicode="o" horiz-adv-x="1239" d="M43 66v860h49v98h909v-66h179h16v-714v-244h-293h-811v66h-49zM317 342h148v-98h438v471h-145v96h-441v-469z" />
<glyph unicode="p" horiz-adv-x="1243" d="M43 -2v244v714h16h164v68h910v-98h67v-863h-67v-65h-814v-506h-63v-65h-213v65v506zM319 242h457v98h129v473h-440v-98h-146v-473z" />
<glyph unicode="q" horiz-adv-x="1265" d="M43 47v877h66v100h929v-51h168h17v-727v-246v-512v-84h-199v84h-82v512h-833v47h-66zM342 330h135v-84h465v465h-154v114h-446v-495z" />
<glyph unicode="r" horiz-adv-x="1257" d="M43 49v975h49v147h232v-147h692v-51h198v-164h-198h-230h-462v-760v-49h-232v49h-49z" />
<glyph unicode="s" horiz-adv-x="1257" d="M43 49v232h297v-66h594v66v49h-594v196h-297v283h66v215h925v-51h180v-164h-180h-248h-446v-180h594v-103h280v-245v-183h-65v-49h-215v-49h-825v49h-66z" />
<glyph unicode="t" horiz-adv-x="843" d="M43 950v133h53v56h191v297h229v-297h191h53h41v-135h-41v-54h-244v-678h94v-96h150v-176h-432v41h-41v39v192v678h-150h-41h-53z" />
<glyph unicode="u" horiz-adv-x="1257" d="M43 49v281v544h66v150h215v-150v-544h131v-115h463v809h296v-809v-166h-65v-49h-215h-16h-809v49h-66z" />
<glyph unicode="v" horiz-adv-x="1259" d="M43 330v694h281v-694h165v-115h-198v115h-248zM489 0v215h297v-215h-297zM786 215v115h134v694h297v-694h-248v-115h-183z" />
<glyph unicode="w" horiz-adv-x="1474" d="M43 205v819h268v-645h127v-94h156v473h270v-473h283v692v47h237v-47h48v-930h-48h-94v-47h-1200v205h-47z" />
<glyph unicode="x" horiz-adv-x="1259" d="M43 0v299h281v147h149v-147h-149v-299h-281zM43 727v297h281v-147h149v-150h-149h-281zM489 446v281h281v-281h-281zM770 299v147h150v-147h297v-299h-297v299h-150zM770 727v150h150v147h297v-297h-297h-150z" />
<glyph unicode="y" horiz-adv-x="1259" d="M43 49v283v542h66v150h231v-150v-542h115v-119h465v811h297v-811v-213v-414h-66v-182h-877v68h-165v65h-66v164h66h182h49v-49h580v348h-811v49h-66z" />
<glyph unicode="z" horiz-adv-x="1259" d="M43 49v430h281v-264h596h65h150h82v-100h-82v-66h-215v-49h-811v49h-66zM59 825v150h183v49h925v-49h50v-397h-281v-99h-297v-84h-299v166h299v82h297v182h-447h-247h-183z" />
<glyph unicode="{" horiz-adv-x="788" d="M43 596v240h109v366h120v230h68h164h241v-150h-241v-80h-109v-958h109v-82h241v-162h-241h-164h-68v244h-120v352h-109z" />
<glyph unicode="}" horiz-adv-x="786" d="M43 0v162h242v80h110v948h-123v94h-229v148h229h177h67v-242h121v-352h106v-244h-106v-352h-109v-242h-65h-178h-242z" />
<glyph unicode="~" horiz-adv-x="1427" d="M43 604v203h246v-203h-246zM289 807v244h403v-244h-403zM692 604v203h447v-203h-447zM1139 807v244h245v-244h-245z" />
<glyph unicode="&#xaa;" horiz-adv-x="563" d="M43 852v145h315v-36h162v-109h-162h-116h-199zM51 1141v80v55h119h225v117h-225h-47h-72v45h72v26h362v-53h25v-342h-25v-18h-315v36h-74v54h-45zM170 1178h53v-37h172v80h-225v-43z" />
<glyph unicode="&#xad;" horiz-adv-x="993" d="M43 342v274h600v-86h307v-188h-530h-377z" />
<glyph unicode="&#xba;" horiz-adv-x="557" d="M43 854v141h311v-34h160v-107h-160h-106h-205zM43 1067v356h27v35h364v-26h72h8v-285v-96h-117h-327v16h-27zM158 1182h63v-35h176v188h-61v35h-178v-188z" />
<glyph unicode="&#xc0;" d="M43 0v1217h94v219h637v-97h230v-1339h-230v555h-244v-80h-243v-475h-244zM287 879h487v258h-487v-258zM299 1772v122h135v-122h-135zM434 1665v107h96v-107h-96zM530 1571v94h95v-94h-95z" />
<glyph unicode="&#xc1;" d="M43 0v1219h94v217h639v-95h228v-1341h-228v571h-244v-82h-245v-489h-244zM287 883h489v268h-489v-268zM424 1573v94h108v-94h-108zM532 1681v95h95v-95h-95zM627 1776v135h123v-135h-123z" />
<glyph unicode="&#xc2;" horiz-adv-x="1048" d="M43 0v1219h94v217h625v-95h244v-1341h-244v555h-246v-82h-229v-473h-244zM246 1530h108v108h-108v-108zM287 881h475v258h-475v-258zM354 1638h95v97h-95v-97zM449 1735v135h122v-135h-122zM449 1735h122v135h-122v-135zM586 1638v97h94v-97h-94zM680 1530v108h94v-108 h-94z" />
<glyph unicode="&#xc3;" d="M43 0v1219h94v215h637v-95h230v-1339h-230v555h-244v-82h-243v-473h-244zM287 879h487v258h-487v-258zM313 1595h68v82h-68v-82zM381 1677v82h149v-82h-149zM530 1595v82h136v-82h-136zM666 1677h79v82h-79v-82z" />
<glyph unicode="&#xc7;" horiz-adv-x="905" d="M43 422v819h70v195h540v-195h209v-209h-209v162h-413v-772h-197zM240 51v82h206v-82h-206zM240 213v209h206v70h207v137h209v-172h-209v-35v-23v-186h-102v-80h-209v80h-102zM446 -29v80h162v-80h-162z" />
<glyph unicode="&#xc9;" horiz-adv-x="1060" d="M43 0v1206h94v230h881v-230v-55v-68h-244v68h-244v55h-243v-325h487v-297h-487v-355h243v70h244v53h244v-53v-70v-229h-731h-150h-94zM422 1585v109h108v-109h-108zM530 1694v94h97v-94h-97zM627 1788v137h121v-137h-121z" />
<glyph unicode="&#xca;" d="M43 0v1206h82v230h879v-230v-69v-56h-228v56h-246v69h-241v-325h487v-312h-487v-340h241v56h246v67h228v-67v-56v-229h-715h-164h-82zM246 1530h110v108h-110v-108zM356 1638h95v97h-95v-97zM451 1735v135h120v-135h-120zM451 1735h120v135h-120v-135zM586 1638v97h94 v-97h-94zM680 1530v108h96v-108h-96z" />
<glyph unicode="&#xcd;" horiz-adv-x="804" d="M43 0v231h231v973h-231v152h231v80h474v-80v-152h-230v-973h244v-231h-244h-244h-231zM246 1573v106h94v-106h-94zM340 1679v95h96v-95h-96zM436 1774v137h135v-137h-135z" />
<glyph unicode="&#xd3;" horiz-adv-x="1034" d="M43 244v960h68v232h161h476v-232h243v-878v-82h-243v-244h-232h-244v244h244v82h232v825h-476v-907h-161h-68zM422 1571v106h94v-106h-94zM516 1677v97h96v-97h-96zM625 1774v135h123v-135h-123z" />
<glyph unicode="&#xd4;" horiz-adv-x="1048" d="M43 229v977h82v230h162h471v-230h248v-882v-95h-248v-229h-242h-229v229h229v95h242v827h-471v-922h-162h-82zM258 1530h96v108h-96v-108zM354 1638h95v95h-95v-95zM449 1733v135h135v-135h-135zM449 1733h135v135h-135v-135zM584 1638v95h94v-95h-94zM678 1530v108h94 v-108h-94z" />
<glyph unicode="&#xd5;" horiz-adv-x="1032" d="M43 229v975h68v232h176h473v-232h229v-880v-95h-229v-229h-242h-231v229h231v95h242v825h-473v-920h-176h-68zM299 1597h82v80h-82v-80zM381 1677v82h137v-82h-137zM518 1597v80h148v-80h-148zM666 1677h82v82h-82v-82z" />
<glyph unicode="&#xda;" horiz-adv-x="1048" d="M43 244v962h82v230h162v-230v-678h475v908h244v-908v-528h-244h-475v244h-162h-82zM369 1571v108h94v-108h-94zM463 1679v95h94v-95h-94zM571 1774v137h121v-137h-121z" />
<glyph unicode="&#xe0;" horiz-adv-x="1234" d="M43 231v213v129h281h571v295h-555h-133h-164v101h164v82h936v-133h49v-852h-49v-66h-819v98h-183v133h-98zM324 330h131v-99h440v213h-571v-114zM422 1413v164h147v-164h-147zM569 1296v117h131v-117h-131zM700 1165v115h115v-115h-115z" />
<glyph unicode="&#xe1;" horiz-adv-x="1234" d="M43 246v215v114h279h573v293h-555h-133h-164v117h164v66h936v-131h49v-854h-49v-66h-821v115h-181v131h-98zM322 346h133v-100h440v215h-573v-115zM422 1165v115h115v-115h-115zM537 1296v115h131v-115h-131zM668 1411v166h147v-166h-147z" />
<glyph unicode="&#xe2;" horiz-adv-x="1251" d="M43 231v211v131h295h573v295h-557h-131h-180v99h180v84h920v-133h65v-852h-65v-66h-805v98h-180v133h-115zM305 1182v114h115v-114h-115zM338 328h131v-97h442v211h-573v-114zM420 1296v131h131v-131h-131zM551 1427v148h149v-148h-149zM700 1296v131h129v-131h-129z M829 1182v114h115v-114h-115z" />
<glyph unicode="&#xe3;" horiz-adv-x="1236" d="M43 229v215v131h279h575v297h-557h-133h-164v99h164v82h938v-131h49v-856h-49v-66h-823v98h-181v131h-98zM322 330h133v-101h442v215h-575v-114zM356 1151v98h99v-98h-99zM455 1249v99h163v-99h-163zM618 1151v98h181v-98h-181zM799 1249v99h82v-99h-82z" />
<glyph unicode="&#xe7;" horiz-adv-x="1222" d="M43 47v850h47v127h899v-80h191v-47v-63v-50h-191v50h-676v-515h148v-94h207h80v94h432v-176h-113v-80h-176v-63h-287v-113h-65v-96h-111v96h64v113h-386v47h-63zM539 -225h65v-64h-65v64z" />
<glyph unicode="&#xe9;" horiz-adv-x="1251" d="M43 66v854h115v131h936v-115h114v-344v-82h-297h-424h-147v-180h147v-84h213h82h129h215h82v-115h-82v-49h-215v-82h-802v66h-66zM340 641h147v-49h424v295h-80v-68h-409v68h-82v-246zM438 1165v115h115v-115h-115zM553 1296v115h115v-115h-115zM668 1411v166h163v-166 h-163z" />
<glyph unicode="&#xea;" horiz-adv-x="1236" d="M43 49v871h115v133h921v-117h115v-342v-86h-281h-444h-145v-180h145v-80h217h98h129h199h82v-117h-82v-65h-199v-66h-821v49h-49zM307 1167v131h113v-131h-113zM324 643h145v-49h444v293h-79v-64h-431v64h-79v-244zM420 1298v134h115v-134h-115zM535 1432v145h167v-145 h-167zM702 1298v134h115v-134h-115zM817 1167v131h113v-131h-113z" />
<glyph unicode="&#xed;" horiz-adv-x="559" d="M43 59v711h29v281h266v-281h-43v-371v-340v-59h-207v59h-45zM162 1110v102h102v-102h-102zM264 1212v119h105v-119h-105zM383 1331v133h133v-133h-133z" />
<glyph unicode="&#xf3;" horiz-adv-x="1290" d="M43 51v899h51v101h950v-50h187h16v-747v-254h-305h-848v51h-51zM332 340h151v-86h459v475h-154v119h-456v-508zM432 1204v119h137v-119h-137zM569 1339v119h119v-119h-119zM688 1458v170h152v-170h-152z" />
<glyph unicode="&#xf4;" horiz-adv-x="1253" d="M43 68v882h49v101h934v-68h168h16v-717v-266h-282h-836v68h-49zM309 1184v133h117v-133h-117zM326 350h151v-84h451v467h-152v101h-450v-484zM426 1317v133h117v-133h-117zM543 1450v152h168v-152h-168zM711 1317v133h116v-133h-116zM827 1184v133h117v-133h-117z" />
<glyph unicode="&#xf5;" horiz-adv-x="1253" d="M43 68v882h49v101h934v-68h168h16v-733v-250h-284h-834v68h-49zM328 350h149v-100h449v483h-150v101h-448v-484zM360 1167v101h101v-101h-101zM461 1268v100h168v-100h-168zM629 1167v101h180v-101h-180zM809 1268v100h84v-100h-84z" />
<glyph unicode="&#xf7;" horiz-adv-x="1116" d="M49 403v232h764v-72h260v-160h-446h-578zM352 0v72h72v188h260v-59h72v-158h-72v-43h-260h-72zM352 764v74h72v186h260v-57h72v-158h-72v-45h-260h-72z" />
<glyph unicode="&#xfa;" horiz-adv-x="1253" d="M43 49v301v549h49v152h236v-152v-549h116v-133h482v834h284v-834v-151h-67v-66h-152h-65h-834v49h-49zM428 1184v116h115v-116h-115zM543 1317v119h135v-119h-135zM678 1436v166h149v-166h-149z" />
<glyph unicode="&#x2c6;" horiz-adv-x="901" d="M43 1051v166h145v-166h-145zM188 1217v147h168v-147h-168zM356 1364v211h189v-211h-189zM545 1217v147h147v-147h-147zM692 1051v166h166v-166h-166z" />
<glyph unicode="&#x2000;" horiz-adv-x="962" />
<glyph unicode="&#x2001;" horiz-adv-x="1925" />
<glyph unicode="&#x2002;" horiz-adv-x="962" />
<glyph unicode="&#x2003;" horiz-adv-x="1925" />
<glyph unicode="&#x2004;" horiz-adv-x="641" />
<glyph unicode="&#x2005;" horiz-adv-x="481" />
<glyph unicode="&#x2006;" horiz-adv-x="320" />
<glyph unicode="&#x2007;" horiz-adv-x="320" />
<glyph unicode="&#x2008;" horiz-adv-x="240" />
<glyph unicode="&#x2009;" horiz-adv-x="385" />
<glyph unicode="&#x200a;" horiz-adv-x="106" />
<glyph unicode="&#x2010;" horiz-adv-x="993" d="M43 342v274h600v-86h307v-188h-530h-377z" />
<glyph unicode="&#x2011;" horiz-adv-x="993" d="M43 342v274h600v-86h307v-188h-530h-377z" />
<glyph unicode="&#x2012;" horiz-adv-x="993" d="M43 342v274h600v-86h307v-188h-530h-377z" />
<glyph unicode="&#x2013;" horiz-adv-x="1110" d="M43 342v274h677v-86h347v-188h-598h-426z" />
<glyph unicode="&#x2014;" horiz-adv-x="2134" d="M43 342v274h1355v-86h693v-188h-1197h-851z" />
<glyph unicode="&#x201a;" horiz-adv-x="385" d="M43 -80h70v-70h-70v70zM53 92v47h60v121h168v-41h61v-98h-61v-29v-92h-88v92h-80h-60zM113 0h80v-80h-80v80z" />
<glyph unicode="&#x201c;" horiz-adv-x="739" d="M43 1063v106h57v21v98h88v-98h80h58v-49h-58v-117h-168v39h-57zM188 1288v68h70v-68h-70zM258 1366v68h78v-68h-78zM403 1063v106h58v21v98h90v-98h88h47v-49h-47v-117h-178v39h-58zM551 1288v68h78v-68h-78zM629 1366v68h67v-68h-67z" />
<glyph unicode="&#x201d;" horiz-adv-x="741" d="M43 1024v78h78v-78h-78zM53 1268v47h58v119h165v-41h60v-105h-60v-20v-99h-88v99h-77h-58zM121 1102v67h67v-67h-67zM414 1024v68h67v-68h-67zM424 1268v47h49v119h176v-41h49v-105h-49v-20v-99h-98v99h-78h-49zM481 1102v67h70v-67h-70z" />
<glyph unicode="&#x202f;" horiz-adv-x="385" />
<glyph unicode="&#x205f;" horiz-adv-x="481" />
<glyph unicode="&#x25fc;" horiz-adv-x="1024" d="M0 0v1024h1024v-1024h-1024z" />
</font>
</defs>
</svg>
